<?xml version="1.0" encoding="utf-8"?>
<!-- Generator: Adobe Illustrator 24.1.2, SVG Export Plug-In . SVG Version: 6.00 Build 0)  -->
<svg version="1.1" id="Capa_1" xmlns="http://www.w3.org/2000/svg" xmlns:xlink="http://www.w3.org/1999/xlink" x="0px" y="0px"
	 viewBox="0 0 200 200" style="enable-background:new 0 0 200 200;" xml:space="preserve">
<style type="text/css">
	.st0{fill:#FFFFFF;}
	.st1{fill:url(#SVGID_1_);}
	.st2{opacity:0.2;fill:url(#SVGID_2_);}
	.st3{opacity:0.2;fill:url(#SVGID_3_);}
</style>
<g>
	<g>
		<g>
			<circle class="st0" cx="100" cy="63.4" r="55"/>
			<radialGradient id="SVGID_1_" cx="100" cy="63.4496" r="69.6655" gradientUnits="userSpaceOnUse">
				<stop  offset="1.194235e-03" style="stop-color:#4DA2D0"/>
				<stop  offset="0.3013" style="stop-color:#1E9CD7"/>
				<stop  offset="0.9838" style="stop-color:#00479A"/>
			</radialGradient>
			<circle class="st1" cx="100" cy="63.4" r="51.1"/>
			
				<linearGradient id="SVGID_2_" gradientUnits="userSpaceOnUse" x1="100.0618" y1="0.6351" x2="99.7442" y2="60.4728" gradientTransform="matrix(1 0 0 0.7885 0 30.5243)">
				<stop  offset="0" style="stop-color:#FFFFFF;stop-opacity:0"/>
				<stop  offset="1" style="stop-color:#FFFFFF"/>
			</linearGradient>
			<path class="st2" d="M133.1,40.2c0-6.6-1.3-12.9-3.5-18.4c-8.4-6-18.6-9.5-29.6-9.5c-11,0-21.3,3.5-29.6,9.5
				c-2.3,5.5-3.5,11.8-3.5,18.4c0,18.5,9.9,34,23.5,39.1c3-1.3,6.3-2,9.6-2s6.6,0.7,9.6,2C123.2,74.3,133.1,58.7,133.1,40.2z"/>
			
				<linearGradient id="SVGID_3_" gradientUnits="userSpaceOnUse" x1="100.0565" y1="-4.7492" x2="99.7255" y2="57.6083" gradientTransform="matrix(1 0 0 0.7885 0 30.5243)">
				<stop  offset="0" style="stop-color:#FFFFFF;stop-opacity:0"/>
				<stop  offset="1" style="stop-color:#FFFFFF"/>
			</linearGradient>
			<path class="st3" d="M133.1,35.2c0-6.6-1.3-12.9-3.5-18.4c-8.4-6-18.6-9.5-29.6-9.5c-11,0-21.3,3.5-29.6,9.5
				c-2.3,5.5-3.5,11.8-3.5,18.4c0,18.5,9.9,36.9,23.5,42c3-1.3,6.3-2,9.6-2s6.6,0.7,9.6,2C123.2,72,133.1,53.6,133.1,35.2z"/>
			<path class="st0" d="M104.7,115.9c0.1,0,0.1,0,0.2,0c3.9-1.2,9.1-2.9,13-2.1c4.2-2.8,8.1-6,11.7-8.5c-1.3-4.9-3.7-10.9-6.1-14.4
				c-5.5-8-13.9-13.4-23.3-13.4c-9,0-17.1,5-22.6,12.4c-2.7,3.6-5.5,10-7,15.3c5,3.6,10.7,8.4,16.9,11.7
				C93.2,116.7,99,116.5,104.7,115.9z"/>
			<circle class="st0" cx="100" cy="63.4" r="18.5"/>
		</g>
		<g>
			<g>
				<g>
					<path class="st0" d="M19.2,154.3l-3.5-1.5l-0.4-0.1c-2.5-0.9-3.9-1.5-3.9-2.7c0-1.8,2.1-2,3-2c2.7,0,4.4,0.8,6.2,2.1l0.4,0.3
						l3.8-4.8l-0.4-0.3c-2.6-2.4-6.1-3.8-9.7-3.8c-6.2,0-10.9,3.8-10.9,8.9c0,5,4,7.3,6.3,8.2l3.7,1.6l0.7,0.3
						c2.4,1,3.3,1.4,3.3,2.8c0,1.2-1.3,1.9-3.4,1.9c-2.4,0-4.9-1-7.1-2.8L7,162l-4.3,5.2l0.4,0.3c3,2.7,7,4.2,11.1,4.2
						c7.9,0,11.4-4.8,11.4-9.3C25.6,158.5,23.5,155.9,19.2,154.3z"/>
					<path class="st0" d="M33.5,141.9l-9.1,29.2h7.7l1.7-6.7h7.6l1.7,6.7h7.9L42,141.9H33.5z M35.9,156.5c0.5-2,1.1-4.4,1.8-7.2
						c0.5,1.9,1,3.9,1.4,5.7l0.9,3.4h-4.5L35.9,156.5z"/>
					<path class="st0" d="M63.4,141.9H52.9v29.2h7.4v-9.6h3.1c7.1,0,11.6-3.9,11.6-10.1C75,145.3,71,141.9,63.4,141.9z M60.4,148.1
						h2.7c3.3,0,4.6,1,4.6,3.5c0,2.7-1.5,4-4.6,4h-2.7V148.1z"/>
				</g>
				<g>
					<polygon class="st0" points="77.2,146.8 86.3,146.8 86.3,171.4 91.7,171.4 91.7,146.8 100.8,146.8 100.8,142.1 77.2,142.1 
											"/>
					<path class="st0" d="M109.2,151.6c-3.7,0-6.9,1.7-8.5,2.7l-0.4,0.3l1.9,3.4l0.5-0.3c2.3-1.3,4.2-2,5.9-2c2.3,0,3.7,1,4,3
						c-9.1,0.8-12.8,2.9-12.8,7.3c0,3.4,2.8,5.8,6.7,5.8c2.7,0,5.1-1.4,6.7-2.4l0.2,2h4.1v-11.5
						C117.4,154.6,114.4,151.6,109.2,151.6z M112.6,162.2v3.4c-1.9,1.5-3.5,2.2-5.1,2.2c-0.9,0-3-0.2-3-2
						C104.4,164.4,105.3,162.8,112.6,162.2z"/>
					<path class="st0" d="M133.5,167c-1.1,0.5-2.1,0.7-3,0.7c-1.9,0-2.9-1-2.9-3v-20.8h-11v4h6.3v16.5c0,4.7,2.5,7.4,6.8,7.4
						c2.1,0,3.3-0.4,5.2-1.1l0.5-0.2l-1.2-3.8L133.5,167z"/>
					<path class="st0" d="M144.2,151.6c-6.4,0-9.9,5.2-9.9,10.1c0,6,4.2,10.1,10.4,10.1c3.3,0,5.8-1.2,7.4-2.2l0.4-0.3l-1.8-3.3
						l-0.5,0.3c-1.8,1.1-3.3,1.5-5,1.5c-3.3,0-5.5-1.6-6-4.5h13.7l0.1-0.5c0.1-0.5,0.2-1.3,0.2-2.1
						C153.1,155.2,149.6,151.6,144.2,151.6z M144.3,155.6c3,0,4,1.9,4.4,3.9h-9.3C140,157.1,141.8,155.6,144.3,155.6z"/>
					<path class="st0" d="M165.2,151.6c-2.8,0-4.9,1.4-6.4,2.8l-0.2-2.4h-4.1v19.3h4.8v-12.9c1.7-1.7,2.9-2.6,4.7-2.6
						c1.9,0,3.2,0.7,3.2,4.1v11.3h4.8v-11.8C172,155.9,170.8,151.6,165.2,151.6z"/>
					<path class="st0" d="M191.2,166.8l-0.5,0.2c-1.4,0.5-2.6,0.7-4,0.7c-2.8,0-3.9-1.1-3.9-4.1v-7.5h8.6v-4h-8.6v-5.8h-4.1
						l-0.5,5.8l-5.2,0.2v3.8h5v7.5c0,5.4,2.6,8.2,7.8,8.2c2.5,0,4.4-0.6,5.9-1.1l0.5-0.2L191.2,166.8z"/>
				</g>
			</g>
			<g>
				<path class="st0" d="M192.9,154c0-1.4,1-2.4,2.2-2.4c1.2,0,2.2,1,2.2,2.4s-1,2.4-2.2,2.4C193.9,156.4,192.9,155.4,192.9,154z
					 M196.9,154c0-1.2-0.8-2-1.8-2c-1,0-1.9,0.9-1.9,2c0,1.2,0.8,2,1.9,2C196.1,156,196.9,155.2,196.9,154z M194.3,152.7h0.8
					c0.5,0,0.9,0.2,0.9,0.8c0,0.3-0.2,0.6-0.5,0.7l0.6,1.1h-0.5l-0.5-0.9h-0.6v0.9h-0.4V152.7z M195,154c0.4,0,0.6-0.1,0.6-0.5
					c0-0.3-0.1-0.5-0.6-0.5h-0.4v0.9H195z"/>
			</g>
		</g>
	</g>
	<g>
		<g>
			<path class="st0" d="M40.3,191.9v0.7h-5.4v-7.7h5.3v0.7h-4.5v2.7h4v0.7h-4v2.9H40.3z"/>
			<path class="st0" d="M48,189.2v3.4h-0.8v-3.3c0-1.2-0.6-1.8-1.7-1.8c-1.2,0-2,0.8-2,2.1v3h-0.8v-5.8h0.7v1.1
				c0.4-0.7,1.2-1.1,2.2-1.1C47,186.8,48,187.6,48,189.2z"/>
			<path class="st0" d="M59.6,184.4v8.2h-0.7v-1.1c-0.5,0.8-1.3,1.2-2.2,1.2c-1.6,0-2.9-1.2-2.9-2.9c0-1.7,1.2-2.9,2.9-2.9
				c0.9,0,1.7,0.4,2.2,1.1v-3.5H59.6z M58.8,189.7c0-1.4-0.9-2.3-2.1-2.3c-1.2,0-2.2,0.9-2.2,2.3s0.9,2.3,2.2,2.3
				C57.9,192,58.8,191.1,58.8,189.7z"/>
			<path class="st0" d="M61.8,189.7c0-1.7,1.3-2.9,2.9-2.9s2.9,1.2,2.9,2.9s-1.2,2.9-2.9,2.9S61.8,191.4,61.8,189.7z M66.9,189.7
				c0-1.4-0.9-2.3-2.1-2.3s-2.2,0.9-2.2,2.3s0.9,2.3,2.2,2.3S66.9,191.1,66.9,189.7z"/>
			<path class="st0" d="M75.3,189.2v3.4h-0.8v-3.3c0-1.2-0.6-1.8-1.7-1.8c-1.2,0-2,0.8-2,2.1v3H70v-5.8h0.7v1.1
				c0.4-0.7,1.2-1.1,2.2-1.1C74.3,186.8,75.3,187.6,75.3,189.2z"/>
			<path class="st0" d="M83.4,184.4v8.2h-0.7v-1.1c-0.5,0.8-1.3,1.2-2.2,1.2c-1.6,0-2.9-1.2-2.9-2.9c0-1.7,1.2-2.9,2.9-2.9
				c0.9,0,1.7,0.4,2.2,1.1v-3.5H83.4z M82.6,189.7c0-1.4-0.9-2.3-2.1-2.3c-1.2,0-2.2,0.9-2.2,2.3s0.9,2.3,2.2,2.3
				C81.7,192,82.6,191.1,82.6,189.7z"/>
			<path class="st0" d="M91.2,190h-4.8c0.1,1.2,1,2,2.3,2c0.7,0,1.3-0.3,1.8-0.8l0.4,0.5c-0.5,0.6-1.3,0.9-2.2,0.9
				c-1.8,0-3-1.2-3-2.9s1.2-2.9,2.8-2.9s2.8,1.2,2.8,2.9C91.3,189.8,91.2,189.9,91.2,190z M86.4,189.4h4.1c-0.1-1.1-0.9-1.9-2.1-1.9
				C87.3,187.4,86.5,188.2,86.4,189.4z"/>
			<path class="st0" d="M100.1,192.2c-0.3,0.3-0.8,0.4-1.2,0.4c-1.1,0-1.7-0.6-1.7-1.7v-3.5h-1v-0.7h1v-1.3H98v1.3h1.8v0.7H98v3.5
				c0,0.7,0.4,1.1,1,1.1c0.3,0,0.6-0.1,0.9-0.3L100.1,192.2z"/>
			<path class="st0" d="M107.4,186.8v5.8h-0.7v-1.1c-0.4,0.7-1.2,1.1-2.1,1.1c-1.5,0-2.4-0.8-2.4-2.5v-3.4h0.8v3.3
				c0,1.2,0.6,1.9,1.7,1.9c1.2,0,2-0.8,2-2.1v-3H107.4z"/>
			<path class="st0" d="M119,184.4v8.2h-0.7v-1.1c-0.5,0.8-1.3,1.2-2.2,1.2c-1.6,0-2.9-1.2-2.9-2.9c0-1.7,1.2-2.9,2.9-2.9
				c0.9,0,1.7,0.4,2.2,1.1v-3.5H119z M118.3,189.7c0-1.4-0.9-2.3-2.1-2.3c-1.2,0-2.2,0.9-2.2,2.3s0.9,2.3,2.2,2.3
				C117.3,192,118.3,191.1,118.3,189.7z"/>
			<path class="st0" d="M126.9,190h-4.8c0.1,1.2,1,2,2.3,2c0.7,0,1.3-0.3,1.8-0.8l0.4,0.5c-0.5,0.6-1.3,0.9-2.2,0.9
				c-1.8,0-3-1.2-3-2.9s1.2-2.9,2.8-2.9s2.8,1.2,2.8,2.9C126.9,189.8,126.9,189.9,126.9,190z M122.1,189.4h4.1
				c-0.1-1.1-0.9-1.9-2.1-1.9C123,187.4,122.2,188.2,122.1,189.4z"/>
			<path class="st0" d="M128.4,191.9l0.4-0.6c0.5,0.4,1.2,0.6,2.1,0.6c1.1,0,1.5-0.4,1.5-0.9c0-1.5-3.7-0.3-3.7-2.6
				c0-0.9,0.8-1.6,2.3-1.6c0.7,0,1.6,0.2,2,0.5l-0.3,0.6c-0.5-0.4-1.1-0.5-1.7-0.5c-1,0-1.5,0.4-1.5,1c0,1.6,3.7,0.4,3.7,2.6
				c0,1-0.9,1.6-2.4,1.6C129.8,192.7,128.8,192.3,128.4,191.9z"/>
			<path class="st0" d="M138.2,192.2c-0.3,0.3-0.8,0.4-1.2,0.4c-1.1,0-1.7-0.6-1.7-1.7v-3.5h-1v-0.7h1v-1.3h0.8v1.3h1.8v0.7h-1.8
				v3.5c0,0.7,0.4,1.1,1,1.1c0.3,0,0.6-0.1,0.9-0.3L138.2,192.2z"/>
			<path class="st0" d="M144.7,189v3.6h-0.7v-0.9c-0.4,0.6-1,1-2,1c-1.3,0-2.1-0.7-2.1-1.7c0-0.9,0.6-1.6,2.2-1.6h1.8V189
				c0-1-0.6-1.5-1.6-1.5c-0.7,0-1.5,0.3-1.9,0.7l-0.4-0.6c0.6-0.5,1.4-0.8,2.4-0.8C143.8,186.8,144.7,187.5,144.7,189z M143.9,190.9
				v-0.9h-1.8c-1.1,0-1.5,0.4-1.5,1c0,0.7,0.5,1.1,1.5,1.1C142.9,192,143.6,191.6,143.9,190.9z"/>
			<path class="st0" d="M146.9,189.7c0-1.7,1.3-2.9,3-2.9c1,0,1.8,0.4,2.3,1.1l-0.6,0.4c-0.4-0.6-1-0.9-1.7-0.9
				c-1.3,0-2.2,0.9-2.2,2.3c0,1.4,0.9,2.3,2.2,2.3c0.7,0,1.3-0.3,1.7-0.8l0.6,0.4c-0.5,0.7-1.3,1.1-2.3,1.1
				C148.2,192.7,146.9,191.4,146.9,189.7z"/>
			<path class="st0" d="M158.7,189v3.6h-0.7v-0.9c-0.4,0.6-1,1-2,1c-1.3,0-2.1-0.7-2.1-1.7c0-0.9,0.6-1.6,2.2-1.6h1.8V189
				c0-1-0.6-1.5-1.6-1.5c-0.7,0-1.5,0.3-1.9,0.7l-0.4-0.6c0.6-0.5,1.4-0.8,2.4-0.8C157.8,186.8,158.7,187.5,158.7,189z M157.9,190.9
				v-0.9h-1.8c-1.1,0-1.5,0.4-1.5,1c0,0.7,0.5,1.1,1.5,1.1C157,192,157.6,191.6,157.9,190.9z"/>
			<path class="st0" d="M160.7,191.9l0.4-0.6c0.5,0.4,1.2,0.6,2.1,0.6c1.1,0,1.5-0.4,1.5-0.9c0-1.5-3.7-0.3-3.7-2.6
				c0-0.9,0.8-1.6,2.3-1.6c0.7,0,1.6,0.2,2,0.5l-0.3,0.6c-0.5-0.4-1.1-0.5-1.7-0.5c-1,0-1.5,0.4-1.5,1c0,1.6,3.7,0.4,3.7,2.6
				c0,1-0.9,1.6-2.4,1.6C162.1,192.7,161.1,192.3,160.7,191.9z"/>
		</g>
	</g>
</g>
</svg>
