<?xml version="1.0" encoding="utf-8"?>
<!-- Generator: Adobe Illustrator 24.1.2, SVG Export Plug-In . SVG Version: 6.00 Build 0)  -->
<svg version="1.1" id="Capa_1" xmlns="http://www.w3.org/2000/svg" xmlns:xlink="http://www.w3.org/1999/xlink" x="0px" y="0px"
	 viewBox="0 0 200 200" style="enable-background:new 0 0 200 200;" xml:space="preserve">
<style type="text/css">
	.st0{fill:url(#SVGID_1_);}
	.st1{fill:url(#SVGID_2_);}
	.st2{fill:url(#SVGID_3_);}
	.st3{fill:#808080;}
	.st4{fill:url(#SVGID_4_);}
	.st5{fill:#FFFFFF;}
	.st6{opacity:0.2;fill:url(#SVGID_5_);}
	.st7{opacity:0.2;fill:url(#SVGID_6_);}
	.st8{fill:#616161;}
</style>
<g>
	<g>
		<g>
			<g>
				<g>
					<radialGradient id="SVGID_1_" cx="7.5708" cy="128.7965" r="82.0616" gradientUnits="userSpaceOnUse">
						<stop  offset="1.194235e-03" style="stop-color:#4DA2D0"/>
						<stop  offset="0.3013" style="stop-color:#1E9CD7"/>
						<stop  offset="0.9838" style="stop-color:#00479A"/>
					</radialGradient>
					<path class="st0" d="M19.4,151.7l-3.5-1.5l-0.4-0.1c-2.5-0.9-3.9-1.5-3.9-2.7c0-1.8,2.1-2,3-2c2.7,0,4.4,0.8,6.2,2.1l0.4,0.3
						l3.8-4.8l-0.4-0.3c-2.6-2.4-6.1-3.8-9.7-3.8c-6.2,0-10.9,3.8-10.9,8.9c0,5,4,7.3,6.3,8.2l3.7,1.6l0.7,0.3
						c2.4,1,3.3,1.4,3.3,2.8c0,1.2-1.3,1.9-3.4,1.9c-2.4,0-4.9-1-7.1-2.8l-0.4-0.3l-4.3,5.2l0.4,0.3c3,2.7,7,4.2,11.1,4.2
						c7.9,0,11.4-4.8,11.4-9.3C25.8,155.9,23.7,153.3,19.4,151.7z"/>
					<radialGradient id="SVGID_2_" cx="5.1917" cy="128.7965" r="82.0616" gradientUnits="userSpaceOnUse">
						<stop  offset="1.194235e-03" style="stop-color:#4DA2D0"/>
						<stop  offset="0.3013" style="stop-color:#1E9CD7"/>
						<stop  offset="0.9838" style="stop-color:#00479A"/>
					</radialGradient>
					<path class="st1" d="M33.7,139.3l-9.1,29.2h7.7l1.7-6.7h7.6l1.7,6.7h7.9l-9.1-29.2H33.7z M36.1,153.9c0.5-2,1.1-4.4,1.7-7.2
						c0.5,1.9,1,3.9,1.4,5.7l0.9,3.4h-4.5L36.1,153.9z"/>
					<radialGradient id="SVGID_3_" cx="4.7051" cy="128.7965" r="82.0616" gradientUnits="userSpaceOnUse">
						<stop  offset="1.194235e-03" style="stop-color:#4DA2D0"/>
						<stop  offset="0.3013" style="stop-color:#1E9CD7"/>
						<stop  offset="0.9838" style="stop-color:#00479A"/>
					</radialGradient>
					<path class="st2" d="M63.6,139.3H53.1v29.2h7.4V159h3.1c7.1,0,11.6-3.9,11.6-10.1C75.2,142.7,71.2,139.3,63.6,139.3z
						 M60.5,145.5h2.7c3.3,0,4.6,1,4.6,3.5c0,2.7-1.5,4-4.6,4h-2.7V145.5z"/>
				</g>
				<g>
					<polygon class="st3" points="77.4,144.2 86.5,144.2 86.5,168.8 91.9,168.8 91.9,144.2 100.9,144.2 100.9,139.5 77.4,139.5 
											"/>
					<path class="st3" d="M109.4,149c-3.7,0-6.9,1.7-8.5,2.7l-0.4,0.3l1.9,3.4l0.5-0.3c2.3-1.3,4.2-2,5.9-2c2.3,0,3.7,1,4,3
						c-9.1,0.8-12.8,2.9-12.8,7.3c0,3.4,2.8,5.8,6.7,5.8c2.7,0,5.1-1.4,6.7-2.4l0.2,2h4.1v-11.5C117.5,152,114.6,149,109.4,149z
						 M112.7,159.6v3.4c-1.9,1.5-3.5,2.2-5.1,2.2c-0.9,0-3-0.2-3-2C104.6,161.8,105.5,160.2,112.7,159.6z"/>
					<path class="st3" d="M133.7,164.4c-1.1,0.5-2.1,0.7-3,0.7c-1.9,0-2.9-1-2.9-3v-20.8h-11v4h6.2v16.5c0,4.7,2.5,7.4,6.8,7.4
						c2.1,0,3.3-0.4,5.2-1.1l0.5-0.2l-1.2-3.8L133.7,164.4z"/>
					<path class="st3" d="M144.3,149c-6.4,0-9.9,5.2-9.9,10c0,6,4.2,10.1,10.4,10.1c3.3,0,5.8-1.2,7.4-2.2l0.4-0.3l-1.8-3.3
						l-0.5,0.3c-1.7,1.1-3.3,1.5-5,1.5c-3.3,0-5.5-1.6-6-4.5H153l0.1-0.5c0.1-0.5,0.2-1.3,0.2-2.1C153.2,152.6,149.7,149,144.3,149z
						 M144.4,153c3,0,4,1.9,4.4,3.9h-9.3C140.1,154.5,142,153,144.4,153z"/>
					<path class="st3" d="M165.4,149c-2.8,0-4.9,1.4-6.4,2.8l-0.2-2.4h-4.1v19.3h4.8v-12.9c1.7-1.7,2.9-2.6,4.6-2.6
						c1.9,0,3.2,0.7,3.2,4.1v11.3h4.8v-11.8C172.1,153.3,171,149,165.4,149z"/>
					<path class="st3" d="M191.3,164.2l-0.5,0.2c-1.4,0.5-2.6,0.7-4,0.7c-2.8,0-3.9-1.1-3.9-4.1v-7.5h8.6v-4h-8.6v-5.8h-4.1
						l-0.5,5.8l-5.2,0.2v3.8h5v7.5c0,5.4,2.6,8.2,7.8,8.2c2.5,0,4.4-0.6,5.9-1.1l0.5-0.2L191.3,164.2z"/>
				</g>
			</g>
			<g>
				<path class="st3" d="M193,151.4c0-1.4,1-2.4,2.2-2.4c1.2,0,2.2,1,2.2,2.4c0,1.4-1,2.4-2.2,2.4C194,153.8,193,152.8,193,151.4z
					 M197.1,151.4c0-1.2-0.8-2-1.8-2s-1.9,0.9-1.9,2c0,1.2,0.8,2,1.9,2S197.1,152.6,197.1,151.4z M194.4,150.1h0.8
					c0.5,0,0.9,0.2,0.9,0.8c0,0.3-0.2,0.6-0.5,0.7l0.6,1.1h-0.5l-0.5-0.9h-0.6v0.9h-0.4V150.1z M195.1,151.4c0.4,0,0.6-0.1,0.6-0.5
					c0-0.3-0.1-0.5-0.6-0.5h-0.4v0.9H195.1z"/>
			</g>
		</g>
		<g>
			<g>
				<radialGradient id="SVGID_4_" cx="100.1735" cy="59.9733" r="69.2708" gradientUnits="userSpaceOnUse">
					<stop  offset="1.194235e-03" style="stop-color:#4DA2D0"/>
					<stop  offset="0.3013" style="stop-color:#1E9CD7"/>
					<stop  offset="0.9838" style="stop-color:#00479A"/>
				</radialGradient>
				<path class="st4" d="M151,60c0-28-22.7-50.8-50.8-50.8c-28,0-50.8,22.7-50.8,50.8c0,17.1,8.5,32.2,21.4,41.4
					c1.6-5.2,4.5-11.8,7-15.2c5.5-7.4,13.5-12.3,22.4-12.3c9.3,0,17.7,5.4,23.2,13.4c2.4,3.4,4.7,9.4,6.1,14.3
					C142.5,92.2,151,77.1,151,60z"/>
				<path class="st5" d="M100.3,73.8c-8.9,0-17,5-22.4,12.3c-2.5,3.4-5.4,10-7,15.2c8.3,5.9,18.4,9.4,29.4,9.4
					c10.9,0,21-3.5,29.3-9.3c-1.3-4.9-3.7-10.8-6.1-14.3C117.9,79.2,109.6,73.8,100.3,73.8z"/>
			</g>
			
				<linearGradient id="SVGID_5_" gradientUnits="userSpaceOnUse" x1="100.235" y1="-3.5407" x2="99.9191" y2="55.9579" gradientTransform="matrix(1 0 0 0.7885 0 30.5243)">
				<stop  offset="0" style="stop-color:#FFFFFF;stop-opacity:0"/>
				<stop  offset="1" style="stop-color:#FFFFFF"/>
			</linearGradient>
			<path class="st6" d="M133.1,36.9c0-6.6-1.3-12.8-3.5-18.3c-8.3-5.9-18.5-9.4-29.4-9.4c-11,0-21.1,3.5-29.4,9.4
				c-2.2,5.5-3.5,11.7-3.5,18.3c0,18.3,9.9,33.9,23.4,38.9c3-1.3,6.2-2,9.6-2s6.6,0.7,9.6,2C123.3,70.7,133.1,55.2,133.1,36.9z"/>
			<g>
				
					<linearGradient id="SVGID_6_" gradientUnits="userSpaceOnUse" x1="100.2297" y1="-8.8946" x2="99.9006" y2="53.1097" gradientTransform="matrix(1 0 0 0.7885 0 30.5243)">
					<stop  offset="0" style="stop-color:#FFFFFF;stop-opacity:0"/>
					<stop  offset="1" style="stop-color:#FFFFFF"/>
				</linearGradient>
				<path class="st7" d="M90.6,73.6c3-1.3,6.2-2,9.6-2s6.6,0.7,9.6,2c13.5-5.1,23.4-23.4,23.4-41.7c0-4-0.5-8-1.4-11.6
					c-8.7-6.9-19.6-11-31.6-11s-22.9,4.1-31.6,11c-0.9,3.7-1.4,7.6-1.4,11.6C67.2,50.2,77.1,68.5,90.6,73.6z"/>
			</g>
			<circle class="st5" cx="100.2" cy="60" r="18.4"/>
		</g>
	</g>
	<g>
		<g>
			<path class="st8" d="M40.5,189.3v0.7H35v-7.7h5.3v0.7h-4.5v2.7h4v0.7h-4v2.9H40.5z"/>
			<path class="st8" d="M48.2,186.6v3.4h-0.8v-3.3c0-1.2-0.6-1.8-1.7-1.8c-1.2,0-2,0.8-2,2.1v3h-0.8v-5.8h0.7v1.1
				c0.4-0.7,1.2-1.1,2.2-1.1C47.2,184.2,48.2,185,48.2,186.6z"/>
			<path class="st8" d="M59.8,181.8v8.2H59v-1.1c-0.5,0.8-1.3,1.2-2.2,1.2c-1.6,0-2.9-1.2-2.9-2.9c0-1.7,1.2-2.9,2.9-2.9
				c0.9,0,1.7,0.4,2.2,1.1v-3.5H59.8z M59,187.1c0-1.4-0.9-2.3-2.1-2.3c-1.2,0-2.2,0.9-2.2,2.3s0.9,2.3,2.2,2.3
				C58.1,189.3,59,188.4,59,187.1z"/>
			<path class="st8" d="M62,187.1c0-1.7,1.3-2.9,2.9-2.9s2.9,1.2,2.9,2.9S66.7,190,65,190S62,188.8,62,187.1z M67.1,187.1
				c0-1.4-0.9-2.3-2.1-2.3s-2.2,0.9-2.2,2.3s0.9,2.3,2.2,2.3S67.1,188.4,67.1,187.1z"/>
			<path class="st8" d="M75.5,186.6v3.4h-0.8v-3.3c0-1.2-0.6-1.8-1.7-1.8c-1.2,0-2,0.8-2,2.1v3h-0.8v-5.8h0.7v1.1
				c0.4-0.7,1.2-1.1,2.2-1.1C74.5,184.2,75.5,185,75.5,186.6z"/>
			<path class="st8" d="M83.6,181.8v8.2h-0.7v-1.1c-0.5,0.8-1.3,1.2-2.2,1.2c-1.6,0-2.9-1.2-2.9-2.9c0-1.7,1.2-2.9,2.9-2.9
				c0.9,0,1.7,0.4,2.2,1.1v-3.5H83.6z M82.8,187.1c0-1.4-0.9-2.3-2.1-2.3c-1.2,0-2.2,0.9-2.2,2.3s0.9,2.3,2.2,2.3
				C81.9,189.3,82.8,188.4,82.8,187.1z"/>
			<path class="st8" d="M91.4,187.3h-4.8c0.1,1.2,1,2,2.3,2c0.7,0,1.3-0.3,1.8-0.8l0.4,0.5c-0.5,0.6-1.3,0.9-2.2,0.9
				c-1.8,0-3-1.2-3-2.9s1.2-2.9,2.8-2.9s2.8,1.2,2.8,2.9C91.4,187.2,91.4,187.2,91.4,187.3z M86.6,186.8h4.1
				c-0.1-1.1-0.9-1.9-2.1-1.9C87.5,184.8,86.7,185.6,86.6,186.8z"/>
			<path class="st8" d="M100.3,189.6c-0.3,0.3-0.8,0.4-1.2,0.4c-1.1,0-1.7-0.6-1.7-1.7v-3.5h-1v-0.7h1v-1.3h0.8v1.3h1.8v0.7h-1.8
				v3.5c0,0.7,0.4,1.1,1,1.1c0.3,0,0.6-0.1,0.9-0.3L100.3,189.6z"/>
			<path class="st8" d="M107.5,184.2v5.8h-0.7v-1.1c-0.4,0.7-1.2,1.1-2.1,1.1c-1.5,0-2.4-0.8-2.4-2.5v-3.4h0.8v3.3
				c0,1.2,0.6,1.9,1.7,1.9c1.2,0,2-0.8,2-2.1v-3H107.5z"/>
			<path class="st8" d="M119.2,181.8v8.2h-0.7v-1.1c-0.5,0.8-1.3,1.2-2.2,1.2c-1.6,0-2.9-1.2-2.9-2.9c0-1.7,1.2-2.9,2.9-2.9
				c0.9,0,1.7,0.4,2.2,1.1v-3.5H119.2z M118.4,187.1c0-1.4-0.9-2.3-2.1-2.3c-1.2,0-2.2,0.9-2.2,2.3s0.9,2.3,2.2,2.3
				C117.5,189.3,118.4,188.4,118.4,187.1z"/>
			<path class="st8" d="M127.1,187.3h-4.8c0.1,1.2,1,2,2.3,2c0.7,0,1.3-0.3,1.8-0.8l0.4,0.5c-0.5,0.6-1.3,0.9-2.2,0.9
				c-1.8,0-3-1.2-3-2.9s1.2-2.9,2.8-2.9s2.8,1.2,2.8,2.9C127.1,187.2,127.1,187.2,127.1,187.3z M122.2,186.8h4.1
				c-0.1-1.1-0.9-1.9-2.1-1.9C123.2,184.8,122.3,185.6,122.2,186.8z"/>
			<path class="st8" d="M128.5,189.3l0.4-0.6c0.5,0.4,1.2,0.6,2.1,0.6c1.1,0,1.5-0.4,1.5-0.9c0-1.5-3.7-0.3-3.7-2.6
				c0-0.9,0.8-1.6,2.3-1.6c0.7,0,1.6,0.2,2,0.5l-0.3,0.6c-0.5-0.4-1.1-0.5-1.7-0.5c-1,0-1.5,0.4-1.5,1c0,1.6,3.7,0.4,3.7,2.6
				c0,1-0.9,1.6-2.4,1.6C129.9,190,129,189.7,128.5,189.3z"/>
			<path class="st8" d="M138.4,189.6c-0.3,0.3-0.8,0.4-1.2,0.4c-1.1,0-1.7-0.6-1.7-1.7v-3.5h-1v-0.7h1v-1.3h0.8v1.3h1.8v0.7h-1.8
				v3.5c0,0.7,0.4,1.1,1,1.1c0.3,0,0.6-0.1,0.9-0.3L138.4,189.6z"/>
			<path class="st8" d="M144.8,186.4v3.6h-0.7v-0.9c-0.4,0.6-1,1-2,1c-1.3,0-2.1-0.7-2.1-1.7c0-0.9,0.6-1.6,2.2-1.6h1.8v-0.4
				c0-1-0.6-1.5-1.6-1.5c-0.7,0-1.5,0.3-1.9,0.7l-0.4-0.6c0.6-0.5,1.4-0.8,2.4-0.8C144,184.2,144.8,184.9,144.8,186.4z M144.1,188.2
				v-0.9h-1.8c-1.1,0-1.5,0.4-1.5,1c0,0.7,0.5,1.1,1.5,1.1C143.1,189.4,143.7,189,144.1,188.2z"/>
			<path class="st8" d="M147.1,187.1c0-1.7,1.3-2.9,3-2.9c1,0,1.8,0.4,2.3,1.1l-0.6,0.4c-0.4-0.6-1-0.9-1.7-0.9
				c-1.3,0-2.2,0.9-2.2,2.3c0,1.4,0.9,2.3,2.2,2.3c0.7,0,1.3-0.3,1.7-0.8l0.6,0.4c-0.5,0.7-1.3,1.1-2.3,1.1
				C148.3,190,147.1,188.8,147.1,187.1z"/>
			<path class="st8" d="M158.8,186.4v3.6h-0.7v-0.9c-0.4,0.6-1,1-2,1c-1.3,0-2.1-0.7-2.1-1.7c0-0.9,0.6-1.6,2.2-1.6h1.8v-0.4
				c0-1-0.6-1.5-1.6-1.5c-0.7,0-1.5,0.3-1.9,0.7l-0.4-0.6c0.6-0.5,1.4-0.8,2.4-0.8C158,184.2,158.8,184.9,158.8,186.4z M158.1,188.2
				v-0.9h-1.8c-1.1,0-1.5,0.4-1.5,1c0,0.7,0.5,1.1,1.5,1.1C157.1,189.4,157.8,189,158.1,188.2z"/>
			<path class="st8" d="M160.8,189.3l0.4-0.6c0.5,0.4,1.2,0.6,2.1,0.6c1.1,0,1.5-0.4,1.5-0.9c0-1.5-3.7-0.3-3.7-2.6
				c0-0.9,0.8-1.6,2.3-1.6c0.7,0,1.6,0.2,2,0.5l-0.3,0.6c-0.5-0.4-1.1-0.5-1.7-0.5c-1,0-1.5,0.4-1.5,1c0,1.6,3.7,0.4,3.7,2.6
				c0,1-0.9,1.6-2.4,1.6C162.2,190,161.3,189.7,160.8,189.3z"/>
		</g>
	</g>
</g>
</svg>
